<svg width="1280" height="800" viewBox="0 0 1280 800" xmlns="http://www.w3.org/2000/svg" font-family="'Segoe UI', -apple-system, Helvetica, Arial, sans-serif">
  <defs>
    <linearGradient id="accentGrad" x1="0%" y1="0%" x2="100%" y2="100%">
      <stop offset="0%" stop-color="#e78a45"/>
      <stop offset="100%" stop-color="#c16048"/>
    </linearGradient>
  </defs>

  <rect width="1280" height="800" fill="#fbf8f4"/>

  <!-- Titlebar -->
  <rect x="0" y="0" width="1280" height="46" fill="#f7f1eb"/>
  <line x1="0" y1="46" x2="1280" y2="46" stroke="#e3d8d2" stroke-width="1"/>
  <text x="20" y="28" font-size="13" font-weight="700" fill="#51453e">Agenda — Dr. Giuseppe Francione</text>
  <text x="1260" y="28" font-size="12" fill="#796f69" text-anchor="end">ven 19 lug 2026</text>

  <!-- Sidebar -->
  <rect x="0" y="46" width="200" height="754" fill="#f8eee7"/>
  <line x1="200" y1="46" x2="200" y2="800" stroke="#e3d8d2" stroke-width="1"/>

  <rect x="14" y="16" width="34" height="34" rx="9" transform="translate(0,46)" fill="url(#accentGrad)"/>
  <text x="31" y="90" font-size="13" font-weight="700" fill="#ffffff" text-anchor="middle">GF</text>
  <text x="58" y="80" font-size="12" font-weight="700" fill="#312620">Dr. G. Francione</text>
  <text x="58" y="94" font-size="10" fill="#796f69">Oftalmologia</text>

  <text x="14" y="122" font-size="10" font-weight="700" letter-spacing="0.5" fill="#827872">MENU</text>

  <rect x="12" y="130" width="176" height="26" rx="8" fill="#f7d6ca"/>
  <circle cx="24" cy="143" r="4" fill="#ba5a42"/>
  <text x="34" y="147" font-size="12.5" font-weight="600" fill="#8f331c">Dashboard</text>

  <circle cx="24" cy="171" r="4" fill="#b9aba2"/>
  <text x="34" y="175" font-size="12.5" font-weight="600" fill="#433831">Pazienti</text>

  <circle cx="24" cy="199" r="4" fill="#b9aba2"/>
  <text x="34" y="203" font-size="12.5" font-weight="600" fill="#433831">Nuova visita</text>

  <text x="14" y="230" font-size="10" font-weight="700" letter-spacing="0.5" fill="#827872">PAZIENTI RECENTI</text>

  <!-- Patient rows -->
  <g font-size="11.5" fill="#3c302a">
    <g transform="translate(12,240)">
      <rect width="176" height="24" rx="8" fill="#ecded5"/>
      <rect x="6" y="2" width="20" height="20" rx="6" fill="#efd9cd"/>
      <text x="16" y="16" font-size="9" font-weight="700" fill="#5f3e33" text-anchor="middle">MB</text>
      <text x="34" y="15" font-weight="600">Maria Bianchi</text>
    </g>
    <g transform="translate(12,268)">
      <rect x="6" y="2" width="20" height="20" rx="6" fill="#efd9cd"/>
      <text x="16" y="16" font-size="9" font-weight="700" fill="#5f3e33" text-anchor="middle">LV</text>
      <text x="34" y="15">Luca Verdi</text>
    </g>
    <g transform="translate(12,296)">
      <rect x="6" y="2" width="20" height="20" rx="6" fill="#efd9cd"/>
      <text x="16" y="16" font-size="9" font-weight="700" fill="#5f3e33" text-anchor="middle">AR</text>
      <text x="34" y="15">Anna Rossi</text>
    </g>
    <g transform="translate(12,324)">
      <rect x="6" y="2" width="20" height="20" rx="6" fill="#efd9cd"/>
      <text x="16" y="16" font-size="9" font-weight="700" fill="#5f3e33" text-anchor="middle">PC</text>
      <text x="34" y="15">Paolo Colombo</text>
    </g>
    <g transform="translate(12,352)">
      <rect x="6" y="2" width="20" height="20" rx="6" fill="#efd9cd"/>
      <text x="16" y="16" font-size="9" font-weight="700" fill="#5f3e33" text-anchor="middle">GF</text>
      <text x="34" y="15">Giulia Ferrari</text>
    </g>
    <g transform="translate(12,380)">
      <rect x="6" y="2" width="20" height="20" rx="6" fill="#efd9cd"/>
      <text x="16" y="16" font-size="9" font-weight="700" fill="#5f3e33" text-anchor="middle">ME</text>
      <text x="34" y="15">Marco Esposito</text>
    </g>
  </g>

  <text x="14" y="778" font-size="10.5" fill="#827872">v1.0 · Studio Oculistico</text>
  <text x="176" y="778" font-size="13" fill="#827872">⚙</text>

  <!-- Main content -->
  <text x="226" y="104" font-size="20" font-weight="700" fill="#2c211b">Buongiorno, Dr. Francione</text>
  <text x="226" y="124" font-size="12.5" fill="#6a615b">Venerdì 19 Luglio 2026</text>

  <!-- Search + buttons -->
  <rect x="762" y="86" width="210" height="34" rx="9" fill="#ffffff" stroke="#e0d5ce"/>
  <text x="776" y="107" font-size="12" fill="#796f69">Cerca paziente…</text>

  <rect x="984" y="86" width="140" height="34" rx="9" fill="#ffffff" stroke="#e0d5ce"/>
  <text x="1054" y="107" font-size="12" font-weight="600" fill="#433831" text-anchor="middle">+ Nuovo paziente</text>

  <rect x="1136" y="86" width="118" height="34" rx="9" fill="#c16048"/>
  <text x="1195" y="107" font-size="12" font-weight="600" fill="#ffffff" text-anchor="middle">+ Nuova visita</text>

  <!-- Stat cards -->
  <g>
    <rect x="226" y="150" width="245" height="70" rx="12" fill="#ffffff" stroke="#e8dfda"/>
    <text x="242" y="174" font-size="10.5" font-weight="700" letter-spacing="0.3" fill="#706761">VISITE OGGI</text>
    <text x="242" y="202" font-size="24" font-weight="700" fill="#312620">8</text>
  </g>
  <g>
    <rect x="487" y="150" width="245" height="70" rx="12" fill="#ffffff" stroke="#e8dfda"/>
    <text x="503" y="174" font-size="10.5" font-weight="700" letter-spacing="0.3" fill="#706761">PAZIENTI TOTALI</text>
    <text x="503" y="202" font-size="24" font-weight="700" fill="#312620">342</text>
  </g>
  <g>
    <rect x="748" y="150" width="245" height="70" rx="12" fill="#ffffff" stroke="#e8dfda"/>
    <text x="764" y="174" font-size="10.5" font-weight="700" letter-spacing="0.3" fill="#706761">PROSSIMO APPUNTAMENTO</text>
    <text x="764" y="199" font-size="17" font-weight="700" fill="#312620">14:30</text>
    <text x="764" y="213" font-size="11" fill="#706761">Maria Bianchi</text>
  </g>
  <g>
    <rect x="1009" y="150" width="245" height="70" rx="12" fill="url(#accentGrad)"/>
    <text x="1025" y="174" font-size="10.5" font-weight="700" letter-spacing="0.3" fill="#ffffff" opacity="0.92">IN ATTESA DI NOTE</text>
    <text x="1025" y="202" font-size="24" font-weight="700" fill="#ffffff">3</text>
  </g>

  <!-- Calendar card -->
  <rect x="226" y="240" width="600" height="480" rx="12" fill="#ffffff" stroke="#e8dfda"/>
  <text x="250" y="272" font-size="14" font-weight="700" fill="#312620">Luglio 2026</text>
  <text x="802" y="272" font-size="11" fill="#796f69" text-anchor="end">appuntamenti</text>
  <circle cx="718" cy="268" r="3.5" fill="#c16048"/>
  <text x="710" y="272" font-size="11" fill="#796f69" text-anchor="end">Legenda:</text>

  <g font-size="10.5" font-weight="700" fill="#827872" text-anchor="middle">
    <text x="264" y="298">LUN</text><text x="341" y="298">MAR</text><text x="418" y="298">MER</text>
    <text x="495" y="298">GIO</text><text x="572" y="298">VEN</text><text x="649" y="298">SAB</text><text x="726" y="298">DOM</text>
  </g>

  <!-- Calendar grid: July 2026, 1st = Wed, today = 19 -->
  <g font-size="12.5" text-anchor="middle">
    <!-- row1: blank blank 1 2 3(*) 4 5 -->
    <text x="418" y="322" fill="#362b25">1</text>
    <text x="495" y="322" fill="#362b25">2</text>
    <text x="572" y="322" fill="#362b25">3</text><circle cx="572" cy="330" r="2.5" fill="#c16048"/>
    <text x="649" y="322" fill="#362b25">4</text>
    <text x="726" y="322" fill="#362b25">5</text>

    <text x="264" y="360" fill="#362b25">6</text><circle cx="264" cy="368" r="2.5" fill="#c16048"/>
    <text x="341" y="360" fill="#362b25">7</text><circle cx="341" cy="368" r="2.5" fill="#c16048"/>
    <text x="418" y="360" fill="#362b25">8</text>
    <text x="495" y="360" fill="#362b25">9</text>
    <text x="572" y="360" fill="#362b25">10</text><circle cx="572" cy="368" r="2.5" fill="#c16048"/>
    <text x="649" y="360" fill="#362b25">11</text>
    <text x="726" y="360" fill="#362b25">12</text>

    <text x="264" y="398" fill="#362b25">13</text>
    <text x="341" y="398" fill="#362b25">14</text><circle cx="341" cy="406" r="2.5" fill="#c16048"/>
    <text x="418" y="398" fill="#362b25">15</text>
    <text x="495" y="398" fill="#362b25">16</text>
    <text x="572" y="398" fill="#362b25">17</text><circle cx="572" cy="406" r="2.5" fill="#c16048"/>
    <text x="649" y="398" fill="#362b25">18</text>
    <rect x="708" y="382" width="36" height="30" rx="9" fill="#c16048"/>
    <text x="726" y="401" fill="#ffffff" font-weight="700">19</text><circle cx="726" cy="406" r="2.5" fill="#ffffff"/>

    <text x="264" y="436" fill="#362b25">20</text>
    <text x="341" y="436" fill="#362b25">21</text><circle cx="341" cy="444" r="2.5" fill="#c16048"/>
    <text x="418" y="436" fill="#362b25">22</text>
    <text x="495" y="436" fill="#362b25">23</text>
    <text x="572" y="436" fill="#362b25">24</text><circle cx="572" cy="444" r="2.5" fill="#c16048"/>
    <text x="649" y="436" fill="#362b25">25</text>
    <text x="726" y="436" fill="#362b25">26</text>

    <text x="264" y="474" fill="#362b25">27</text>
    <text x="341" y="474" fill="#362b25">28</text><circle cx="341" cy="482" r="2.5" fill="#c16048"/>
    <text x="418" y="474" fill="#362b25">29</text>
    <text x="495" y="474" fill="#362b25">30</text>
    <text x="572" y="474" fill="#362b25">31</text>
  </g>

  <!-- Appointments card -->
  <rect x="846" y="240" width="408" height="480" rx="12" fill="#ffffff" stroke="#e8dfda"/>
  <text x="870" y="272" font-size="14" font-weight="700" fill="#312620">Prossimi appuntamenti</text>

  <g font-size="12" fill="#312620">
    <g transform="translate(870,292)">
      <rect width="360" height="52" rx="10" fill="#fbf8f4"/>
      <text x="24" y="31" font-size="12.5" font-weight="700" text-anchor="middle" fill="#362b25">09:00</text>
      <line x1="48" y1="10" x2="48" y2="42" stroke="#e8dfda"/>
      <text x="60" y="24" font-size="12.5" font-weight="600">Luca Verdi</text>
      <text x="60" y="40" font-size="11" fill="#706761">Rinnovo occhiali</text>
    </g>
    <g transform="translate(870,352)">
      <rect width="360" height="52" rx="10" fill="#fbf8f4"/>
      <text x="24" y="31" font-size="12.5" font-weight="700" text-anchor="middle" fill="#362b25">10:30</text>
      <line x1="48" y1="10" x2="48" y2="42" stroke="#e8dfda"/>
      <text x="60" y="24" font-size="12.5" font-weight="600">Giulia Ferrari</text>
      <text x="60" y="40" font-size="11" fill="#706761">Controllo di routine</text>
    </g>
    <g transform="translate(870,412)">
      <rect width="360" height="52" rx="10" fill="#fbf8f4"/>
      <text x="24" y="31" font-size="12.5" font-weight="700" text-anchor="middle" fill="#362b25">11:15</text>
      <line x1="48" y1="10" x2="48" y2="42" stroke="#e8dfda"/>
      <text x="60" y="24" font-size="12.5" font-weight="600">Marco Esposito</text>
      <text x="60" y="40" font-size="11" fill="#706761">Controllo retinopatia</text>
    </g>
    <g transform="translate(870,472)">
      <rect width="360" height="52" rx="10" fill="#fdece6" stroke="#f3cdc0"/>
      <text x="24" y="31" font-size="12.5" font-weight="700" text-anchor="middle" fill="#362b25">14:30</text>
      <line x1="48" y1="10" x2="48" y2="42" stroke="#e8dfda"/>
      <text x="60" y="24" font-size="12.5" font-weight="600">Maria Bianchi</text>
      <text x="60" y="40" font-size="11" fill="#706761">Controllo glaucoma</text>
    </g>
    <g transform="translate(870,532)">
      <rect width="360" height="52" rx="10" fill="#fbf8f4"/>
      <text x="24" y="31" font-size="12.5" font-weight="700" text-anchor="middle" fill="#362b25">16:00</text>
      <line x1="48" y1="10" x2="48" y2="42" stroke="#e8dfda"/>
      <text x="60" y="24" font-size="12.5" font-weight="600">Paolo Colombo</text>
      <text x="60" y="40" font-size="11" fill="#706761">Controllo AMD</text>
    </g>
  </g>
</svg>
